<?xml version="1.0" encoding="UTF-8"?>
<!-- Generator: visioncortex VTracer 0.6.2 -->
<svg version="1.1" xmlns="http://www.w3.org/2000/svg" width="1280" height="528">
<path d="M0 0 C422.4 0 844.8 0 1280 0 C1280 174.24 1280 348.48 1280 528 C857.6 528 435.2 528 0 528 C0 353.76 0 179.52 0 0 Z " fill="#1F5C03" transform="translate(0,0)"/>
<path d="M0 0 C1.08087891 0.10828125 1.08087891 0.10828125 2.18359375 0.21875 C8.29318274 0.74682972 14.2943768 1.03082637 20.42578125 0.9609375 C21.54863525 0.94869141 22.67148926 0.93644531 23.82836914 0.92382812 C26.09991663 0.89141218 28.37131731 0.84594824 30.64233398 0.78710938 C32.21930054 0.76487305 32.21930054 0.76487305 33.828125 0.7421875 C34.7759082 0.7201123 35.72369141 0.69803711 36.70019531 0.67529297 C37.45913086 0.78244629 38.21806641 0.88959961 39 1 C41.57758058 4.86637086 40.92560966 6.23562609 40.1875 10.75 C39.98207287 12.12055837 39.78033967 13.49167477 39.58203125 14.86328125 C39.43048584 15.90669678 39.43048584 15.90669678 39.27587891 16.97119141 C37.43199866 30.53105411 37.80053882 44.35176292 38 58 C38.01256836 58.99773437 38.02513672 59.99546875 38.03808594 61.0234375 C38.2746569 75.73911722 39.91870354 89.92509798 42.53515625 104.40478516 C43.04765136 107.26603675 43.52663223 110.13204064 44 113 C43.18321777 113.02505615 42.36643555 113.0501123 41.52490234 113.07592773 C37.80812451 113.19229143 34.09157498 113.31483472 30.375 113.4375 C29.08980469 113.47681641 27.80460938 113.51613281 26.48046875 113.55664062 C25.23652344 113.59853516 23.99257813 113.64042969 22.7109375 113.68359375 C21.56931152 113.72025146 20.42768555 113.75690918 19.25146484 113.79467773 C16.10512705 113.99336148 13.10131879 114.44958776 10 115 C8.37605252 115.0620775 6.74994703 115.08712041 5.125 115.0625 C3.95324219 115.04896484 3.95324219 115.04896484 2.7578125 115.03515625 C2.17773438 115.02355469 1.59765625 115.01195312 1 115 C1.53159308 110.39286 2.20884762 105.87136699 3.0625 101.3125 C4.53934603 92.47380029 5.87217353 82.93983835 1 75 C-1.85930528 73.70582012 -1.85930528 73.70582012 -4.125 74.75 C-6.31976074 75.93604785 -6.31976074 75.93604785 -7 79 C-7.6714233 89.79442082 -6.52983373 99.51926024 -4 110 C-4.63276855 110.02505615 -5.26553711 110.0501123 -5.91748047 110.07592773 C-19.28547147 110.60905163 -32.64476134 111.20745427 -46 112 C-47.05206591 108.84380226 -46.97591097 108.00223618 -46.2578125 104.89453125 C-46.07863281 104.07404297 -45.89945313 103.25355469 -45.71484375 102.40820312 C-45.33297019 100.72770656 -44.94776881 99.04796131 -44.55859375 97.36914062 C-41.62026383 83.83406769 -41.82168662 69.85166761 -41.875 56.0625 C-41.87688324 55.31920441 -41.87876648 54.57590881 -41.88070679 53.81008911 C-41.71419911 27.56818861 -41.71419911 27.56818861 -47 2 C-45.32550781 2.10828125 -45.32550781 2.10828125 -43.6171875 2.21875 C-33.40528008 2.83594713 -23.26804601 3.09543804 -13.03662109 2.875 C-12.14668457 2.86339844 -11.25674805 2.85179687 -10.33984375 2.83984375 C-9.54956787 2.82300537 -8.75929199 2.80616699 -7.94506836 2.78881836 C-6 3 -6 3 -4 5 C-4.49091293 7.98713081 -5.08255713 10.8209594 -5.8125 13.75 C-6.19539692 15.34862688 -6.57693559 16.94757977 -6.95703125 18.546875 C-7.13983643 19.31515625 -7.3226416 20.0834375 -7.51098633 20.875 C-8.64202887 25.78992475 -9.15748306 30.45715362 -9.1875 35.5 C-9.20167969 36.5828125 -9.21585938 37.665625 -9.23046875 38.78125 C-8.98498712 42.20967136 -8.36343377 44.84734251 -7 48 C-4.15173402 50.36692966 -4.15173402 50.36692966 -0.8125 49.625 C0.115625 49.41875 1.04375 49.2125 2 49 C7.41211369 35.69522052 5.44315793 20.17074666 0.8984375 6.74609375 C0 4 0 4 0 0 Z " fill="#DFFDD2" transform="translate(901,161)"/>
<path d="M0 0 C5.07378318 3.69002413 9.12790888 8.32122665 11.125 14.3125 C12.29943611 27.81851531 12.29943611 27.81851531 9.0625 32 C2.58575127 37.09871708 -2.53312869 37.92786413 -10.7109375 37.73046875 C-16.7161454 36.9371882 -20.19242549 34.03821745 -24.3125 29.8125 C-25.92201754 27.23727193 -26.53227139 25.31137538 -26.875 22.3125 C-23.875 20.3125 -23.875 20.3125 -21.6875 20.6875 C-21.089375 20.89375 -20.49125 21.1 -19.875 21.3125 C-19.545 19.9925 -19.215 18.6725 -18.875 17.3125 C-19.535 17.3125 -20.195 17.3125 -20.875 17.3125 C-20.875 16.6525 -20.875 15.9925 -20.875 15.3125 C-22.33422693 15.42659593 -23.79240598 15.55415544 -25.25 15.6875 C-26.46816406 15.79191406 -26.46816406 15.79191406 -27.7109375 15.8984375 C-30.07834191 16.14142588 -30.07834191 16.14142588 -31.875 18.3125 C-32.84067571 22.17520284 -33.0958593 24.62231467 -31.875 28.4375 C-27.09831382 35.30398639 -20.49369669 37.30156908 -12.93310547 40.01391602 C-2.12414347 43.95413494 6.8922916 49.63501386 13.0625 59.5625 C16.97466572 68.09102126 16.6879039 79.05545962 14.05078125 87.92578125 C9.38644763 97.98285127 2.10070608 104.72465482 -7.875 109.3125 C-8.67292969 109.70566406 -9.47085938 110.09882813 -10.29296875 110.50390625 C-21.16530963 115.22457468 -34.11806328 114.92234894 -45.09375 110.640625 C-53.9368702 106.4177867 -61.77229261 101.51791477 -66.25 92.5625 C-67.63179254 85.37717879 -67.95820929 78.46968374 -64.21484375 71.96875 C-61.08899047 68.10472145 -56.6864922 66.25025895 -51.875 65.3125 C-44.93581083 64.80356088 -38.88654504 64.58534208 -32.875 68.3125 C-30.68059337 70.51179395 -28.73482861 72.82591596 -26.875 75.3125 C-29.35 75.8075 -29.35 75.8075 -31.875 76.3125 C-32.205 78.2925 -32.535 80.2725 -32.875 82.3125 C-29.42470958 84.61269361 -27.92945642 84.74382515 -23.875 84.3125 C-21.69893927 81.04840891 -21.47693384 80.09124401 -21.875 76.3125 C-25.30191227 68.80799591 -31.84134786 65.80408569 -38.875 62.3125 C-62.25927436 50.09106464 -62.25927436 50.09106464 -65.875 41.3125 C-67.7342854 31.64421593 -67.71309506 22.07397055 -62.875 13.3125 C-48.88327643 -5.37122726 -20.65545274 -12.67650695 0 0 Z " fill="#DFFDD2" transform="translate(520.875,165.6875)"/>
<path d="M0 0 C0.8139624 0.07677979 1.6279248 0.15355957 2.46655273 0.23266602 C11.98868299 1.10790589 21.44623087 1.09650272 31 1 C33.21227589 4.48523278 33.00914933 6.50177266 32.1640625 10.4765625 C30.97154384 16.80284527 30.55971267 22.94825646 30.375 29.375 C30.33777832 30.52766357 30.30055664 31.68032715 30.26220703 32.86791992 C26.72484911 75.69222758 26.72484911 75.69222758 35 117 C18.665 117.495 18.665 117.495 2 118 C1.505 114.535 1.505 114.535 1 111 C0.45730469 111.48210937 -0.08539063 111.96421875 -0.64453125 112.4609375 C-1.35996094 113.09257812 -2.07539063 113.72421875 -2.8125 114.375 C-3.52019531 115.00148438 -4.22789062 115.62796875 -4.95703125 116.2734375 C-10.73784937 121.15894727 -16.8352925 120.82299189 -24.07373047 120.29003906 C-28.64530283 119.60169585 -31.74950454 117.11325232 -35 114 C-35.928125 113.154375 -36.85625 112.30875 -37.8125 111.4375 C-44.41030059 102.5936999 -44.59586005 90.95924017 -44.41162109 80.41455078 C-44.37479924 78.23813354 -44.37060559 76.06341748 -44.37109375 73.88671875 C-44.30157608 59.69319185 -41.87509656 46.27311225 -31.75390625 35.46484375 C-25.94575121 30.61393475 -18.63840222 27.50122374 -11 28 C-6.09651516 29.57908834 -2.16693989 32.05265227 2 35 C2.158057 27.23984028 1.66504697 19.60392427 1 11.875 C0.90460938 10.72773438 0.80921875 9.58046875 0.7109375 8.3984375 C0.47762017 5.59862951 0.2405706 2.79919247 0 0 Z " fill="#DFFDD2" transform="translate(416,156)"/>
<path d="M0 0 C1.9480957 0.00483398 1.9480957 0.00483398 3.93554688 0.00976562 C5.30729233 0.01812094 6.67903712 0.02658588 8.05078125 0.03515625 C9.4342432 0.0401729 10.81770688 0.04473552 12.20117188 0.04882812 C15.5885852 0.06063096 18.97591158 0.07709606 22.36328125 0.09765625 C23.2371818 3.01488772 23.40405158 5.24355569 23.0234375 8.2578125 C22.92973877 9.04679932 22.83604004 9.83578613 22.73950195 10.64868164 C22.63597412 11.47746826 22.53244629 12.30625488 22.42578125 13.16015625 C20.39399911 24.87436608 20.39399911 24.87436608 22.36328125 36.09765625 C23.04390625 35.33453125 23.72453125 34.57140625 24.42578125 33.78515625 C29.45886854 29.18041682 35.50552048 26.91953259 42.36328125 27.09765625 C50.61884346 28.43793751 55.21198972 32.81189976 60.0234375 39.35546875 C66.7657153 49.65939208 67.86135024 60.5925576 67.73828125 72.66015625 C67.74988281 73.80162109 67.76148438 74.94308594 67.7734375 76.11914062 C67.72611874 89.92833064 64.1853021 102.94086882 54.5703125 113.14453125 C49.83582488 117.3343433 43.93250693 120.0113975 37.48046875 119.6875 C31.38885113 117.99038882 25.77552192 113.34725729 22.36328125 108.09765625 C22.03328125 107.10765625 21.70328125 106.11765625 21.36328125 105.09765625 C21.85828125 111.03765625 21.85828125 111.03765625 22.36328125 117.09765625 C11.80328125 116.76765625 1.24328125 116.43765625 -9.63671875 116.09765625 C-9.63671875 111.05152774 -9.42401759 106.6644245 -8.76171875 101.72265625 C-8.5787773 100.32951226 -8.39651053 98.93627953 -8.21484375 97.54296875 C-8.12009766 96.82270508 -8.02535156 96.10244141 -7.92773438 95.36035156 C-7.42393519 91.4432284 -6.9685942 87.52048339 -6.51171875 83.59765625 C-6.42422363 82.8495166 -6.33672852 82.10137695 -6.24658203 81.33056641 C-6.04275242 79.58632626 -5.83964996 77.84200115 -5.63671875 76.09765625 C-6.29671875 75.76765625 -6.95671875 75.43765625 -7.63671875 75.09765625 C-7.63671875 74.43765625 -7.63671875 73.77765625 -7.63671875 73.09765625 C-6.97671875 73.09765625 -6.31671875 73.09765625 -5.63671875 73.09765625 C-5.8754415 65.89719734 -6.12494204 58.69716514 -6.38134766 51.49731445 C-6.46706414 49.05664178 -6.55046509 46.61588648 -6.63134766 44.17504883 C-7.11155398 29.73625264 -7.84379613 15.43773738 -9.63671875 1.09765625 C-6.21920222 -0.04151593 -3.60183938 -0.01572856 0 0 Z " fill="#DFFDD2" transform="translate(1031.63671875,156.90234375)"/>
<path d="M0 0 C6.15900512 0.59192385 12.23375846 0.62604573 18.41235352 0.52514648 C20.25398284 0.50341074 22.09605452 0.52859537 23.9375 0.5625 C24.9375 1.5625 24.9375 1.5625 25.0703125 3.94140625 C25.04845344 12.84897358 24.57587514 21.68224581 23.9375 30.5625 C26.17476914 30.77243399 26.17476914 30.77243399 28.25 28.6875 C34.55848296 23.6993972 41.17764105 23.83261228 48.9375 24.5625 C54.70093348 26.02424038 58.17111606 30.52683399 61.26196289 35.38598633 C67.5485027 47.30412264 67.55453216 60.87120114 67.625 74 C67.664185 77.31129447 67.71290883 80.62242888 67.76171875 83.93359375 C67.77218231 84.73896576 67.78264587 85.54433777 67.79342651 86.37411499 C67.95479873 97.16562641 68.59802539 107.8467031 69.9375 118.5625 C58.3875 118.5625 46.8375 118.5625 34.9375 118.5625 C33.95460295 114.63091179 34.00977433 113.18519786 34.8125 109.375 C36.86523964 99.50161146 37.09581853 89.83298463 37.06787109 79.79663086 C37.06250403 77.50172342 37.06784607 75.20701093 37.07421875 72.91210938 C37.07355799 71.42968708 37.07227686 69.9472649 37.0703125 68.46484375 C37.07233673 67.79065903 37.07436096 67.1164743 37.07644653 66.42185974 C37.05366757 61.71705696 36.58953704 57.21190615 35.9375 52.5625 C35.2775 52.5625 34.6175 52.5625 33.9375 52.5625 C33.9375 51.5725 33.9375 50.5825 33.9375 49.5625 C30.77227027 49.99412224 28.65879269 50.63574818 26.6484375 53.21875 C18.31683145 70.24159977 25.1066034 96.72437793 27.9375 114.5625 C23.93584864 114.85049328 19.93397784 115.1352019 15.93188477 115.41699219 C14.57309812 115.51311525 13.21437241 115.61010416 11.85571289 115.70800781 C9.89225624 115.84933631 7.92855091 115.98719599 5.96484375 116.125 C4.78656006 116.20878906 3.60827637 116.29257812 2.39428711 116.37890625 C-1.09831613 116.56440223 -4.56568068 116.59373903 -8.0625 116.5625 C-7.93403687 115.59147339 -7.93403687 115.59147339 -7.80297852 114.60083008 C-5.88605596 99.92168169 -4.3620952 85.36749592 -4.0625 70.5625 C-4.04058594 69.49612305 -4.01867187 68.42974609 -3.99609375 67.33105469 C-3.61497449 45.00381813 -4.67118551 22.76664356 -7.0625 0.5625 C-4.43250653 -0.75249674 -2.92065256 -0.32540971 0 0 Z " fill="#DFFDD2" transform="translate(548.0625,156.4375)"/>
<path d="M0 0 C3.22902895 1.72042662 4.35533616 2.56425424 6.4375 5.6875 C5.9425 2.2225 5.9425 2.2225 5.4375 -1.3125 C8.54227343 -2.34742448 10.18547562 -2.11873375 13.33740234 -1.6015625 C18.34681822 -0.91205443 23.44577136 -0.9010611 28.49414062 -0.70703125 C29.35845703 -0.66964844 30.22277344 -0.63226563 31.11328125 -0.59375 C31.89614502 -0.56345703 32.67900879 -0.53316406 33.4855957 -0.50195312 C35.4375 -0.3125 35.4375 -0.3125 37.4375 0.6875 C37.30472656 1.47511719 37.17195312 2.26273438 37.03515625 3.07421875 C36.85855469 4.16347656 36.68195313 5.25273437 36.5 6.375 C36.32597656 7.43074219 36.15195312 8.48648438 35.97265625 9.57421875 C34.52468323 19.78714873 34.242819 30.07456841 34.25 40.375 C34.2512085 42.20321289 34.2512085 42.20321289 34.25244141 44.06835938 C34.34554338 57.87666065 36.13006041 71.09767176 38.4375 84.6875 C34.32600113 84.85478213 30.21430194 85.01537468 26.10229492 85.16967773 C24.70248319 85.22316026 23.30274096 85.27849434 21.90307617 85.33569336 C19.8952104 85.41742949 17.88705813 85.49203025 15.87890625 85.56640625 C14.06434937 85.63710327 14.06434937 85.63710327 12.21313477 85.70922852 C9.4375 85.6875 9.4375 85.6875 8.4375 84.6875 C8.36491054 82.50110547 8.35376217 80.31249611 8.375 78.125 C8.38402344 76.92746094 8.39304687 75.72992188 8.40234375 74.49609375 C8.41394531 73.56925781 8.42554688 72.64242187 8.4375 71.6875 C7.7775 71.6875 7.1175 71.6875 6.4375 71.6875 C6.705625 72.244375 6.97375 72.80125 7.25 73.375 C7.311875 74.138125 7.37375 74.90125 7.4375 75.6875 C5.3125 78.125 5.3125 78.125 2.4375 80.6875 C1.591875 81.574375 0.74625 82.46125 -0.125 83.375 C-4.8857759 87.89163355 -8.96597916 88.25028238 -15.39453125 88.125 C-23.1030108 87.06045042 -29.29886791 81.94137551 -34.09375 76.015625 C-38.70284408 68.70972056 -40.27060755 60.20314496 -40.5625 51.6875 C-40.60246094 50.66785156 -40.64242187 49.64820313 -40.68359375 48.59765625 C-40.88440427 38.66344184 -39.65674455 29.15224804 -36.5625 19.6875 C-36.37042969 19.05457031 -36.17835938 18.42164063 -35.98046875 17.76953125 C-33.28778006 9.62847831 -28.81093746 3.91292219 -21.39453125 -0.40234375 C-14.45701359 -3.84891436 -6.85066706 -3.31580252 0 0 Z " fill="#DFFDD2" transform="translate(662.5625,188.3125)"/>
<path d="M0 0 C0.92554688 -0.03738281 1.85109375 -0.07476562 2.8046875 -0.11328125 C11.01153315 -0.21760556 15.46380044 2.29508538 21.44921875 7.69921875 C33.85112511 21.56826375 35.72200453 35.00738304 35.02294922 53.05761719 C34.23266141 65.43618461 28.91702235 77.43847672 19.75 85.82421875 C11.26339371 92.84334937 1.50473591 93.25616384 -9.125 92.375 C-18.48348872 90.25441979 -26.61578302 84.13747546 -32.125 76.375 C-35.8494203 68.24351634 -37.92592197 60.29369573 -38.125 51.375 C-38.17527344 50.529375 -38.22554688 49.68375 -38.27734375 48.8125 C-38.82777166 34.01699777 -35.49811729 19.99559049 -25.3125 8.9375 C-21.36067616 5.22171958 -17.17127577 3.22809297 -12.125 1.375 C-8.42510654 -0.47494673 -4.07308853 0.06087496 0 0 Z " fill="#DFFDD2" transform="translate(332.125,183.625)"/>
<path d="M0 0 C0.87333984 -0.02900391 1.74667969 -0.05800781 2.64648438 -0.08789062 C9.9975424 -0.15926012 15.12757074 1.502579 20.66796875 6.390625 C32.78961311 20.76084731 36.86479949 34.50610725 35.3125 53.3125 C33.75759322 66.07499654 29.41183155 76.69478819 20 85.8125 C11.58489899 92.2185904 1.60598472 93.60350816 -8.6875 92.3125 C-18.45226674 89.83860051 -26.89251847 84.26838867 -32.34765625 75.70703125 C-39.31607441 61.62798232 -40.18735888 41.95056992 -35.65234375 26.9453125 C-31.87448273 16.63649336 -26.39093402 7.97236125 -16.3125 2.8125 C-10.5482948 0.42731164 -6.15109485 0.06661836 0 0 Z " fill="#DFFDD2" transform="translate(254.6875,183.6875)"/>
<path d="M0 0 C0.86302734 -0.01998047 1.72605469 -0.03996094 2.61523438 -0.06054688 C8.18808643 -0.05628302 11.40308287 0.72323055 15.8125 4.4375 C21.54811635 10.81040706 22.28045705 15.40376053 22.11328125 23.89453125 C21.48429856 31.30345722 18.90675016 35.71746358 13.5625 40.8125 C5.54687244 47.43296086 -3.06528171 48.61202101 -13.1875 48.4375 C-11.86890309 53.77883182 -11.86890309 53.77883182 -8.453125 57.859375 C-4.01908031 60.23107332 -0.24202811 61.15957544 4.8125 60.4375 C9.50373683 58.94443216 12.73802316 57.17420782 15.1875 52.8125 C15.72375 51.69875 16.26 50.585 16.8125 49.4375 C17.4725 48.7775 18.1325 48.1175 18.8125 47.4375 C22.08168644 52.74992797 22.35694155 57.19076023 22.3125 63.25 C22.30677979 64.14420654 22.30105957 65.03841309 22.29516602 65.9597168 C22.11589123 72.54942333 21.28096892 77.36946437 16.8125 82.4375 C16.29300781 83.076875 15.77351562 83.71625 15.23828125 84.375 C9.69448707 90.57784664 2.22636285 93.98448816 -6.03515625 94.67578125 C-17.55866673 94.94181612 -26.57636689 92.24256814 -35.1875 84.4375 C-42.30282037 77.48389146 -45.12331919 67.49222971 -45.35546875 57.70703125 C-45.36737482 55.88804815 -45.3737181 54.06902162 -45.375 52.25 C-45.38724609 51.35474609 -45.39949219 50.45949219 -45.41210938 49.53710938 C-45.44156969 35.93626599 -41.57988921 22.07664997 -31.97265625 11.95703125 C-22.33445339 3.75295923 -12.56545567 -0.10463286 0 0 Z " fill="#DFFDD2" transform="translate(826.1875,183.5625)"/>
<path d="M0 0 C0.19574173 2.56212284 0.20808769 4.8643996 0.07421875 7.4140625 C0.03455742 8.50852188 0.03455742 8.50852188 -0.00590515 9.62509155 C-0.09379118 11.95921572 -0.20289163 14.29180469 -0.3125 16.625 C-0.37574637 18.20567387 -0.43761285 19.78640361 -0.49804688 21.3671875 C-0.64935062 25.24562163 -0.81968764 29.12281059 -1 33 C-1.66314209 32.58935303 -2.32628418 32.17870605 -3.00952148 31.75561523 C-4.33318726 30.9465271 -4.33318726 30.9465271 -5.68359375 30.12109375 C-6.55298584 29.58669678 -7.42237793 29.0522998 -8.31811523 28.50170898 C-15.30654553 24.58856973 -22.15517858 22.98276021 -30 25 C-32.61760705 25.79573513 -32.61760705 25.79573513 -34 28 C-34.99300903 32.25802272 -35.3918743 35.8243771 -34 40 C-30.32076407 42.45282395 -27.27644549 42.59731728 -23 42 C-20.71515694 40.60042803 -20.71515694 40.60042803 -19 39 C-18.01 39 -17.02 39 -16 39 C-16 48.24 -16 57.48 -16 67 C-18.97 65.02 -21.94 63.04 -25 61 C-29.44714182 61 -31.31353872 61.54235915 -35 64 C-37.03592438 78.37986232 -32.96642765 93.59064533 -28 107 C-28.92296875 106.97679687 -29.8459375 106.95359375 -30.796875 106.9296875 C-43.26824818 106.75715862 -55.64304077 107.64685532 -67.96484375 109.62890625 C-71 110 -71 110 -73 109 C-73 108.34 -73 107.68 -73 107 C-72.34 107 -71.68 107 -71 107 C-70.95101562 106.44054687 -70.90203125 105.88109375 -70.8515625 105.3046875 C-70.38651863 100.31749292 -69.76684177 95.38763532 -69 90.4375 C-66.05988482 70.07610531 -66.59716355 49.47294257 -67.875 29 C-67.95339111 27.71270996 -68.03178223 26.42541992 -68.11254883 25.09912109 C-68.60449574 17.7835922 -69.42465155 10.63608216 -70.69970703 3.4140625 C-70.79880371 2.61742187 -70.89790039 1.82078125 -71 1 C-70.67 0.67 -70.34 0.34 -70 0 C-67.44797887 0.09577803 -64.92084034 0.2508248 -62.375 0.4375 C-43.7093346 1.60941166 -23.44008312 2.68314651 -5.1015625 -1.69140625 C-3 -2 -3 -2 0 0 Z " fill="#DFFDD2" transform="translate(217,164)"/>
<path d="M0 0 C1.35158203 0.23203125 1.35158203 0.23203125 2.73046875 0.46875 C9.31381787 1.41041263 15.99721687 1.39475292 22.63476562 1.60546875 C23.67955078 1.64285156 24.72433594 1.68023437 25.80078125 1.71875 C26.75122314 1.74904297 27.70166504 1.77933594 28.6809082 1.81054688 C31 2 31 2 33 3 C32.70703125 5.01822917 32.4140625 7.03645833 32.12109375 9.0546875 C31.8315703 11.08140667 31.8315703 11.08140667 33 13 C32.34 13 31.68 13 31 13 C30.99120064 13.84325836 30.99120064 13.84325836 30.98222351 14.70355225 C30.9177725 20.60981185 30.83322702 26.5155523 30.73754883 32.42138672 C30.70450703 34.61890777 30.67641213 36.81650947 30.65356445 39.01416016 C30.29176744 72.89991488 30.29176744 72.89991488 19.63671875 84.546875 C11.80127984 91.50339833 4.10684308 93.0218336 -6.03515625 92.44921875 C-14.89118877 91.4458259 -20.95127623 87.44738966 -27 81 C-34.34548248 71.07367232 -34.37668762 58.36579347 -34.0625 46.5 C-33.93324399 37.1686435 -34.00628831 27.97832269 -34.9375 18.6875 C-35.02459229 17.8109375 -35.11168457 16.934375 -35.20141602 16.03125 C-35.31082959 12.19727342 -35.31082959 12.19727342 -37 9 C-37.04063832 7.33382885 -37.042721 5.66611905 -37 4 C-32.31842099 4.11795925 -27.63706712 4.24218549 -22.95581055 4.37231445 C-21.362107 4.41572146 -19.7683552 4.45739219 -18.17456055 4.49731445 C-15.88836092 4.55487807 -13.60240551 4.61861149 -11.31640625 4.68359375 C-10.59973282 4.70030624 -9.88305939 4.71701874 -9.14466858 4.73423767 C-4.11387171 4.88612829 -4.11387171 4.88612829 -3 6 C-3.05078125 7.72265625 -3.05078125 7.72265625 -3.3125 10.0625 C-3.41046875 10.97128906 -3.5084375 11.88007813 -3.609375 12.81640625 C-3.88679529 15.07738162 -4.19175947 17.33505269 -4.515625 19.58984375 C-5.54469517 26.94769545 -6.18673188 34.12707307 -6.1875 41.5625 C-6.18858765 42.66851562 -6.18858765 42.66851562 -6.18969727 43.796875 C-6.14421214 48.28610378 -5.72769013 52.56982248 -5 57 C-2.03 57.495 -2.03 57.495 1 58 C2.97172452 54.69535447 3.25690743 52.19405931 3.265625 48.37109375 C3.26957275 47.2622583 3.27352051 46.15342285 3.27758789 45.01098633 C3.26848389 43.83173584 3.25937988 42.65248535 3.25 41.4375 C3.24540771 40.23053467 3.24081543 39.02356934 3.23608398 37.7800293 C3.13556522 27.75012048 2.33660725 17.93149943 1 8 C0.80966413 6.4936826 0.62081774 4.9871761 0.43359375 3.48046875 C0.29050781 2.33191406 0.14742187 1.18335938 0 0 Z " fill="#DFFDD2" transform="translate(985,184)"/>
<path d="M0 0 C3.53608205 2.21743179 5.81890073 4.85918522 8.10546875 8.3203125 C8.72615234 9.22136719 8.72615234 9.22136719 9.359375 10.140625 C13.90672718 18.22128567 13.65665447 29.74016209 11.22265625 38.49609375 C8.26035628 44.96018541 3.80142491 49.23541415 -2.33203125 52.6953125 C-8.67520174 54.24242725 -13.42449173 53.74007869 -19.06640625 50.5859375 C-22.88542177 47.94200368 -25.30751759 45.04221923 -26.83203125 40.5703125 C-26.91950116 36.02187708 -26.23301266 31.67233392 -24.89453125 27.3203125 C-24.23453125 26.6603125 -23.57453125 26.0003125 -22.89453125 25.3203125 C-22.15203125 25.8359375 -21.40953125 26.3515625 -20.64453125 26.8828125 C-18.06237671 28.56974022 -18.06237671 28.56974022 -15.58203125 28.0078125 C-15.02515625 27.7809375 -14.46828125 27.5540625 -13.89453125 27.3203125 C-14.38953125 23.8553125 -14.38953125 23.8553125 -14.89453125 20.3203125 C-20.5122129 20.50141331 -20.5122129 20.50141331 -25.20703125 23.1953125 C-35.05173826 41.42625141 -29.22108254 67.02937462 -24.89453125 86.3203125 C-29.41506495 86.65779303 -33.9360007 86.98955989 -38.45703125 87.3203125 C-39.73384766 87.41570312 -41.01066406 87.51109375 -42.32617188 87.609375 C-43.56689453 87.69960938 -44.80761719 87.78984375 -46.0859375 87.8828125 C-47.22232666 87.96660156 -48.35871582 88.05039062 -49.52954102 88.13671875 C-52.99142007 88.32559875 -56.42821843 88.3511413 -59.89453125 88.3203125 C-59.92206956 86.7995858 -59.941165 85.27870576 -59.95703125 83.7578125 C-59.96863281 82.91089844 -59.98023438 82.06398438 -59.9921875 81.19140625 C-59.89453125 78.3203125 -59.89453125 78.3203125 -59.42578125 75.15234375 C-58.752103 70.29294403 -58.52749614 65.46940259 -58.33203125 60.5703125 C-58.29029785 59.5289917 -58.24856445 58.4876709 -58.20556641 57.41479492 C-57.57544134 40.10693109 -57.53912419 22.7905638 -58.62646484 5.5012207 C-58.75052329 3.44271609 -58.82783398 1.38147315 -58.89453125 -0.6796875 C-57.89453125 -1.6796875 -57.89453125 -1.6796875 -55.27416992 -1.74902344 C-51.54281759 -1.65744359 -47.81254528 -1.55091543 -44.08203125 -1.4296875 C-42.78458984 -1.40261719 -41.48714844 -1.37554687 -40.15039062 -1.34765625 C-38.90451172 -1.30769531 -37.65863281 -1.26773438 -36.375 -1.2265625 C-35.22926514 -1.19401367 -34.08353027 -1.16146484 -32.90307617 -1.12792969 C-29.67911952 -0.64759337 -28.26492207 0.14186056 -25.89453125 2.3203125 C-24.84265625 1.6396875 -24.84265625 1.6396875 -23.76953125 0.9453125 C-15.66736898 -3.63417052 -8.29562049 -4.08355845 0 0 Z " fill="#DFFDD2" transform="translate(766.89453125,184.6796875)"/>
<path d="M0 0 C0 0.66 0 1.32 0 2 C0.99 2.33 1.98 2.66 3 3 C2.5184364 9.1842905 1.65542577 15.01499912 0 21 C-0.29003906 22.14855469 -0.58007812 23.29710937 -0.87890625 24.48046875 C-2.75853082 31.88313848 -4.92637893 38.9926499 -8 46 C-8.30292969 46.71414063 -8.60585938 47.42828125 -8.91796875 48.1640625 C-9.60347776 49.77967529 -10.30022405 51.39051533 -11 53 C-16.95703125 53.390625 -16.95703125 53.390625 -19 53 C-22.59338511 49.68844902 -23.43658097 44.80772915 -24.6875 40.25 C-24.91244141 39.45722656 -25.13738281 38.66445313 -25.36914062 37.84765625 C-25.92041856 35.90058952 -26.46125071 33.95057054 -27 32 C-27.38091797 33.41152344 -27.38091797 33.41152344 -27.76953125 34.8515625 C-28.11371094 36.09679687 -28.45789063 37.34203125 -28.8125 38.625 C-29.14894531 39.85476563 -29.48539063 41.08453125 -29.83203125 42.3515625 C-32.68235294 51.25524297 -32.68235294 51.25524297 -36.875 53.625 C-40 54 -40 54 -42.55053711 52.43383789 C-45.48659396 49.51650999 -46.20869472 47.40232205 -47.31640625 43.43359375 C-47.49960922 42.7994606 -47.68281219 42.16532745 -47.87156677 41.51197815 C-48.45198022 39.49147395 -49.00810605 37.46528108 -49.5625 35.4375 C-50.30735506 32.7885187 -51.06175459 30.1422979 -51.81640625 27.49609375 C-52.17621582 26.22620605 -52.53602539 24.95631836 -52.90673828 23.64794922 C-54.18687215 19.37645294 -55.67635054 15.21782656 -57.28100586 11.05883789 C-58 9 -58 9 -58 7 C-60.31 7.66 -62.62 8.32 -65 9 C-65.33 11.31 -65.66 13.62 -66 16 C-65.05125 15.79375 -64.1025 15.5875 -63.125 15.375 C-62.09375 15.25125 -61.0625 15.1275 -60 15 C-59.34 15.66 -58.68 16.32 -58 17 C-58.23080763 19.3850122 -58.87657089 20.8116082 -60.1875 22.8125 C-62 24 -62 24 -64.9375 23.875 C-70.03488372 22.41860465 -70.03488372 22.41860465 -72 20 C-72.92271844 16.02276536 -72.83355443 12.5640191 -70.89453125 8.92578125 C-67.53526655 4.62988511 -64.4820461 2.85066233 -59 2 C-51.92455859 1.53772071 -51.92455859 1.53772071 -49 3 C-49 3.66 -49 4.32 -49 5 C-48.01 5.33 -47.02 5.66 -46 6 C-42.66983498 11.51558581 -41.22592982 16.84499731 -39.7890625 23.08984375 C-38.7044282 27.09010392 -36.98101835 30.36813303 -35 34 C-34.67 34.99 -34.34 35.98 -34 37 C-30.68378844 26.59284584 -30.68378844 26.59284584 -32 16 C-32.12781786 13.32605036 -32.04391871 10.67904143 -32 8 C-27.64431487 5.94314869 -27.64431487 5.94314869 -24.875 6.1875 C-22.0819758 7.39781049 -20.44070075 9.01640702 -19.19140625 11.8046875 C-18.98386719 12.48789062 -18.77632812 13.17109375 -18.5625 13.875 C-18.32015625 14.65875 -18.0778125 15.4425 -17.828125 16.25 C-17.55484375 17.1575 -17.2815625 18.065 -17 19 C-16.64421875 20.11375 -16.2884375 21.2275 -15.921875 22.375 C-13 31.59330986 -13 31.59330986 -13 35 C-9.8446332 34.33419391 -9.8446332 34.33419391 -8.83203125 31.76171875 C-5.41804005 21.46742344 -5.6144071 11.74304657 -6 1 C-4 0 -4 0 0 0 Z " fill="#DFFAC9" transform="translate(716,329)"/>
<path d="M0 0 C2 2 2 2 2 6 C-0.31 5.34 -2.62 4.68 -5 4 C-8.76828488 7.160497 -9.53899764 9.14897442 -10 14 C-9.90918696 17.15392368 -9.61066613 20.27575689 -9.29296875 23.4140625 C-9.20751297 24.30612396 -9.12205719 25.19818542 -9.03401184 26.11727905 C-8.85197855 27.99523131 -8.66600399 29.87280524 -8.47631836 31.75 C-8.18786403 34.62137632 -7.91636634 37.49401282 -7.64648438 40.3671875 C-7.46716126 42.19541238 -7.28685625 44.02354128 -7.10546875 45.8515625 C-6.98500435 47.13759872 -6.98500435 47.13759872 -6.86210632 48.44961548 C-6.77894669 49.25079803 -6.69578705 50.05198059 -6.61010742 50.87744141 C-6.54047287 51.57882233 -6.47083832 52.28020325 -6.39909363 53.00283813 C-5.94114427 55.29452841 -5.21874711 57.00800311 -4 59 C-1.94999129 59.80528889 -1.94999129 59.80528889 0 60 C-3.66493756 62.47922247 -6.54656919 63.82186277 -11 64 C-15.75339914 62.77532511 -15.75339914 62.77532511 -18 61 C-19.30383164 58.04204214 -19.57087737 55.0731928 -19.875 51.875 C-20.0296875 50.64910156 -20.0296875 50.64910156 -20.1875 49.3984375 C-20.49156107 46.93476316 -20.74962476 44.46965456 -21 42 C-21.18855697 40.29409911 -21.37858043 38.58835945 -21.5703125 36.8828125 C-21.71210938 35.60148437 -21.85390625 34.32015625 -22 33 C-24.71799156 34.35899578 -25.12045762 35.90885653 -26.4375 38.625 C-26.87320313 39.5221875 -27.30890625 40.419375 -27.7578125 41.34375 C-29.25003052 44.53465647 -30.65527789 47.744357 -32 51 C-35.88881355 50.44445521 -37.4800429 48.96465541 -40 46 C-41.58523595 43.15755778 -42.92055712 40.21908909 -44.25 37.25 C-44.61351562 36.45722656 -44.97703125 35.66445313 -45.3515625 34.84765625 C-46.2423196 32.90205521 -47.12224953 30.95150346 -48 29 C-48.00616333 30.02770508 -48.00616333 30.02770508 -48.01245117 31.07617188 C-48.04560147 34.21828989 -48.11626885 37.35852372 -48.1875 40.5 C-48.19330078 41.57765625 -48.19910156 42.6553125 -48.20507812 43.765625 C-48.39291825 50.61135415 -49.22735196 55.83345484 -54 61 C-59.07815805 63.64947377 -64.37800366 63.68399904 -69.875 62.25 C-72 61 -72 61 -72.8125 58.875 C-72.874375 58.25625 -72.93625 57.6375 -73 57 C-71.25 56.3125 -71.25 56.3125 -69 56 C-68.401875 56.495 -67.80375 56.99 -67.1875 57.5 C-64.95180851 59.3204876 -64.95180851 59.3204876 -61.4375 59.125 C-57.75911621 58.32779275 -57.75911621 58.32779275 -56.125 55 C-53.31341415 46.51836492 -53.87411237 37.24837998 -53.9375 28.4375 C-53.94201172 27.23802734 -53.94652344 26.03855469 -53.95117188 24.80273438 C-53.96286231 21.86843641 -53.97924862 18.93424551 -54 16 C-58.455 17.485 -58.455 17.485 -63 19 C-63.33 20.65 -63.66 22.3 -64 24 C-61.69 24.66 -59.38 25.32 -57 26 C-56.25 27.75 -56.25 27.75 -56 30 C-57.93751477 32.68271276 -59.17093405 33.82993519 -62.4375 34.5 C-65.99236035 33.80636871 -67.58140437 32.69500656 -70 30 C-70.5739551 26.05405867 -70.34352969 23.75249361 -68.6875 20.125 C-67 18 -67 18 -64 17 C-64 16.34 -64 15.68 -64 15 C-50.81996269 10.54477612 -50.81996269 10.54477612 -44.375 13 C-38.93440099 17.58155706 -35.95571054 24.65069588 -33 31 C-33 31.66 -33 32.32 -33 33 C-32.01 33.33 -31.02 33.66 -30 34 C-29.5153125 32.98421875 -29.030625 31.9684375 -28.53125 30.921875 C-16.98153612 7.05731506 -16.98153612 7.05731506 -8 1 C-5.03104944 0.01034981 -3.0913386 -0.23779528 0 0 Z " fill="#DFFAC9" transform="translate(519,319)"/>
<path d="M0 0 C5.48752841 6.00739953 5.76808634 10.98745428 5.8125 18.9375 C5.83763672 20.00291016 5.86277344 21.06832031 5.88867188 22.16601562 C5.94723017 24.7777156 5.98373921 27.38775164 6 30 C6.66 29.34 7.32 28.68 8 28 C8.99 27.67 9.98 27.34 11 27 C11.99 27.66 12.98 28.32 14 29 C16.62531524 29.16713569 16.62531524 29.16713569 19 29 C20.3211792 26.1636451 20.3211792 26.1636451 19.1796875 24.16796875 C18.74914062 23.51441406 18.31859375 22.86085938 17.875 22.1875 C17.41480469 21.47851562 16.95460938 20.76953125 16.48046875 20.0390625 C15.1528024 18.21045608 13.76029611 16.67585532 12.1875 15.0625 C9.60596918 11.44835686 9.32182987 9.39582529 9.5703125 5.0546875 C10.20329712 2.02787015 11.48642381 0.7235951 14 -1 C18.41221348 -2.47073783 22.33863834 -2.47994892 26.8125 -1.1875 C29 0 29 0 31 3 C30.625 5.6875 30.625 5.6875 30 8 C28.68 8.33 27.36 8.66 26 9 C24.9375 7.125 24.9375 7.125 24 5 C24.33 4.34 24.66 3.68 25 3 C23.68 3 22.36 3 21 3 C20.66359484 6.17103226 20.63953996 7.5402208 22.64453125 10.09765625 C23.71767578 11.07025391 23.71767578 11.07025391 24.8125 12.0625 C31.64529764 18.34767815 31.64529764 18.34767815 32.46875 22.18359375 C32.52505612 26.24467289 32.2966634 28.49874115 30.1875 32.0625 C25.53484708 34.89058315 21.31674634 34.78707121 16 34 C14.30792999 33.0436126 12.63183107 32.05589069 11 31 C8.47636012 31.62533375 8.47636012 31.62533375 6 33 C0.66666667 35.22222222 0.66666667 35.22222222 -2.625 34.125 C-3.40875 33.75375 -4.1925 33.3825 -5 33 C-8.89371686 32.7570671 -8.89371686 32.7570671 -11.875 34.125 C-15.74245227 35.20788663 -17.38833726 34.64880255 -21 33 C-22.175625 32.4740625 -22.175625 32.4740625 -23.375 31.9375 C-25.72026176 29.14122636 -25.61730483 26.78913009 -25.44921875 23.21875 C-24.71695824 19.60201984 -22.90269519 18.14547036 -20 16 C-17.08657347 14.36119758 -14.37721227 13.11735493 -11.1875 12.125 C-8.76658991 11.19176566 -8.76658991 11.19176566 -8.125 8.625 C-8.00635513 6.13345783 -8.21607764 4.35176707 -9 2 C-10.98 2.33 -12.96 2.66 -15 3 C-14.814375 4.093125 -14.62875 5.18625 -14.4375 6.3125 C-14 10 -14 10 -15 13 C-17.49361571 11.79618552 -19.68143083 10.54571278 -22 9 C-22.5625 6.125 -22.5625 6.125 -22 3 C-15.84763823 -2.17357694 -7.30634756 -4.422263 0 0 Z " fill="#DFFAC8" transform="translate(743,348)"/>
<path d="M0 0 C2.5625 2.25 2.5625 2.25 4 5 C3.95703125 7.40234375 3.95703125 7.40234375 3 10 C0.3828125 12.23828125 0.3828125 12.23828125 -2.875 14.3125 C-4.47988281 15.35857422 -4.47988281 15.35857422 -6.1171875 16.42578125 C-9 18 -9 18 -12 18 C-11.77031049 21.98128488 -11.59423683 24.31572728 -8.9375 27.375 C-5.15229884 29.46894107 -2.29917163 29.70853074 2 30 C2 29.34 2 28.68 2 28 C7.625 27.75 7.625 27.75 11 30 C13.62531524 30.16713569 13.62531524 30.16713569 16 30 C16.76221316 28.224434 16.76221316 28.224434 17 26 C15.95792566 23.73169518 15.95792566 23.73169518 14.3125 21.5625 C13.48298828 20.37720703 13.48298828 20.37720703 12.63671875 19.16796875 C10.94826055 16.86484928 10.94826055 16.86484928 8.625 14.375 C6.33131639 11.02269318 6.3614043 8.97348433 7 5 C9.04689294 1.962675 10.59243226 0.36065793 14.1953125 -0.5625 C17.95634843 -1.05900639 21.40628262 -1.40885776 25 0 C26.69968841 2.18756193 27.73478913 4.51476437 29 7 C28.01 7.99 27.02 8.98 26 10 C21.125 8.25 21.125 8.25 20 6 C20.66 5.67 21.32 5.34 22 5 C20.68 4.67 19.36 4.34 18 4 C18.54131776 10.13493456 22.61754402 13.61754402 26.75 17.75 C29.55927201 20.55927201 29.93728865 21.33525969 30.3125 25.3125 C29.95124058 29.57536111 28.98007946 31.01992054 26 34 C22.06615833 35.96692084 17.28705416 35.47297061 13 35 C10.72766206 33.89854088 9.0295736 32.53455565 7 31 C4.1933833 31.09053602 2.4096804 32.2951598 -0.125 33.5625 C-4.72217623 35.52710523 -9.0853898 35.92615755 -14 35 C-18.33140115 33.02519705 -22.02219298 30.91824562 -24.2265625 26.59375 C-25.92752066 20.88952668 -25.85475313 15.14295688 -23.375 9.6875 C-20.47940634 4.658311 -17.05934817 1.8389937 -11.625 -0.375 C-7.15471294 -1.14573915 -4.4216661 -1.08729494 0 0 Z " fill="#E0FAC8" transform="translate(918,347)"/>
<path d="M0 0 C1.60546875 1.046875 1.60546875 1.046875 3 3 C3.50940564 5.56706099 3.87503191 7.97214442 4.125 10.5625 C4.49402745 15.42861581 4.49402745 15.42861581 6 20 C6.680625 19.484375 7.36125 18.96875 8.0625 18.4375 C12.0173407 16.50215242 13.83413807 16.58658256 18 18 C22.83149988 23.23621101 23.79104549 28.60357742 23.625 35.5 C23.64433594 36.30308594 23.66367187 37.10617187 23.68359375 37.93359375 C23.6275496 44.84944217 21.17273326 49.47333414 16.59277344 54.56420898 C12.99119069 57.93395332 9.83717912 58.70976925 5 59 C6 56 6 56 7.484375 54.68359375 C11.39347982 50.3412634 11.0416422 42.14334878 10.93359375 36.58203125 C10.62271365 32.5307208 10.28773162 28.86319486 9 25 C7.35 25 5.7 25 4 25 C4 33.91 4 42.82 4 52 C-3 54 -3 54 -5.89990234 53.265625 C-9.31784585 49.57828302 -8.66746629 45.59653971 -8.6015625 40.75 C-8.60956879 39.7403418 -8.61757507 38.73068359 -8.62582397 37.69042969 C-8.64894837 34.4598803 -8.6394051 31.23058415 -8.625 28 C-8.62115892 24.76965054 -8.62453635 21.53985676 -8.64559937 18.30957031 C-8.65773505 16.29853662 -8.65494378 14.28734728 -8.63589478 12.27636719 C-8.64137833 10.9097998 -8.64137833 10.9097998 -8.64697266 9.515625 C-8.64299469 8.71415039 -8.63901672 7.91267578 -8.63491821 7.08691406 C-9.08482976 4.51508835 -10.01804966 3.63306586 -12 2 C-7.8549309 0.42092606 -4.4448552 -0.4938728 0 0 Z " fill="#E0FCCC" transform="translate(316,329)"/>
<path d="M0 0 C1.11503906 0.04382813 2.23007812 0.08765625 3.37890625 0.1328125 C7.28343232 1.08027093 8.34650671 2.51734732 10.4375 5.875 C10.875 8.5 10.875 8.5 10.4375 10.875 C8.9375 12.6875 8.9375 12.6875 7.4375 13.875 C5.125 13.3125 5.125 13.3125 2.4375 11.875 C1.08973022 9.59537377 0.32385784 7.39412228 -0.5625 4.875 C-1.8825 4.875 -3.2025 4.875 -4.5625 4.875 C-5.39477815 11.76083427 -5.39477815 11.76083427 -3.21484375 18.140625 C-1.41097553 20.15461414 0.47135262 22.01984481 2.4375 23.875 C13.57865576 35.98029424 13.57865576 35.98029424 14.125 43.375 C13.79229073 48.7168321 11.25047458 52.26538406 7.4375 55.875 C1.76223793 59.43594875 -4.04564358 59.59377093 -10.5625 58.875 C-14.36586614 57.86214706 -18.46118616 56.3359875 -20.5625 52.875 C-20.875 49.3125 -20.875 49.3125 -20.5625 45.875 C-19.9025 45.215 -19.2425 44.555 -18.5625 43.875 C-15.9375 44.25 -15.9375 44.25 -13.5625 44.875 C-12.5725 47.845 -11.5825 50.815 -10.5625 53.875 C-7.76204954 54.73150653 -7.76204954 54.73150653 -4.5625 54.875 C-2.00264926 53.56638543 -2.00264926 53.56638543 -0.5625 50.875 C0.52606784 44.5613065 -1.14692748 40.83403211 -4.5703125 35.53515625 C-7.56730407 31.53329104 -10.92687285 27.9205155 -14.390625 24.3203125 C-17.95420668 20.30807845 -19.01937971 17.43216508 -18.88671875 11.97265625 C-18.31681259 8.28543207 -16.69596928 5.92281325 -14.5625 2.875 C-9.7957276 -0.30284827 -5.63665181 -0.30044726 0 0 Z " fill="#E0FBCC" transform="translate(289.5625,331.125)"/>
<path d="M0 0 C5.32862541 3.43400304 7.79924323 7.87339254 9.8125 13.8125 C10.78987225 20.43691191 9.00891679 23.99402147 5.515625 29.61328125 C2.99749426 32.8649042 1.19856328 34.57488915 -2.921875 35.28125 C-9.93986264 35.35397526 -14.94741497 34.73739195 -20.1875 29.8125 C-24.28611116 24.56115446 -23.81133299 18.17901479 -23.1875 11.8125 C-22.0178885 6.72604998 -19.58110483 3.63696025 -15.1875 0.8125 C-10.08759161 -1.87166231 -5.39205424 -2.00880452 0 0 Z " fill="#E0FBCB" transform="translate(542.1875,347.1875)"/>
<path d="M0 0 C0.75539063 -0.02578125 1.51078125 -0.0515625 2.2890625 -0.078125 C4.97324122 0.34410536 5.69118756 1.15014161 7.375 3.25 C7.77372742 5.20524597 7.77372742 5.20524597 7.80737305 7.44604492 C7.83706429 8.70701241 7.83706429 8.70701241 7.86735535 9.99345398 C7.87374527 10.89666885 7.88013519 11.79988373 7.88671875 12.73046875 C7.91364555 14.12245232 7.91364555 14.12245232 7.94111633 15.54255676 C7.99531291 18.50749157 8.029145 21.47226455 8.0625 24.4375 C8.09566482 26.44728819 8.13015369 28.457055 8.16601562 30.46679688 C8.25104479 35.39441465 8.31781138 40.32198364 8.375 45.25 C12.6132509 47.36912545 17.49312346 46.50196473 21.875 45.25 C22.7 44.92 23.525 44.59 24.375 44.25 C25 46.125 25 46.125 25.375 48.25 C21.19591433 52.42908567 13.34115306 52.35589206 7.625 52.5625 C3.28864215 52.46890954 -1.44372886 51.43127114 -4.625 48.25 C-4.71768999 46.89905018 -4.74247326 45.54332909 -4.73852539 44.18920898 C-4.73844986 43.32839218 -4.73837433 42.46757538 -4.73829651 41.58067322 C-4.73313522 40.64526199 -4.72797394 39.70985077 -4.72265625 38.74609375 C-4.7212413 37.79307877 -4.71982635 36.84006378 -4.71836853 35.85816956 C-4.71275152 32.80124835 -4.70019616 29.74439923 -4.6875 26.6875 C-4.68248719 24.62044376 -4.67792391 22.55338638 -4.67382812 20.48632812 C-4.66277656 15.40752412 -4.64550055 10.3287743 -4.625 5.25 C-9.23220376 5.13513896 -12.04715672 5.09307946 -15.625 8.25 C-16.04246608 11.37635209 -16.04246608 11.37635209 -15.625 14.25 C-14.861875 14.04375 -14.09875 13.8375 -13.3125 13.625 C-10.625 13.25 -10.625 13.25 -7.625 15.25 C-8.19844937 18.11724686 -8.4864515 19.1114515 -10.625 21.25 C-14.15486508 21.57683936 -16.76275866 21.60374004 -20.0625 20.25 C-22.09606259 17.64703988 -22.18632661 15.42864424 -22.0078125 12.1796875 C-21.40569184 9.14450783 -20.11189697 8.01700574 -17.625 6.25 C-12.26785714 3.25 -12.26785714 3.25 -9.625 3.25 C-9.625 2.59 -9.625 1.93 -9.625 1.25 C-6.41683224 0.42208574 -3.29977612 0.10765991 0 0 Z " fill="#E0FBC9" transform="translate(867.625,330.75)"/>
<path d="M0 0 C0.81339844 0.020625 1.62679688 0.04125 2.46484375 0.0625 C6.66800435 1.57943014 8.98675203 4.06529236 11.0625 8 C11.89977514 12.15440765 11.9475373 16.20928619 11.9375 20.4375 C11.958125 21.55060547 11.97875 22.66371094 12 23.81054688 C12.04687676 26.54111793 12.06696172 29.26911087 12.0625 32 C13.0525 32.33 14.0425 32.66 15.0625 33 C10.69742063 35.96825397 10.69742063 35.96825397 8.0625 37 C4.8125 36.3125 4.8125 36.3125 2.0625 35 C-1.03267162 33.581576 -1.03267162 33.581576 -4.1875 35.5625 C-7.33318622 37.02204509 -7.990781 36.99111983 -11.6875 36.375 C-15.3590648 34.82164566 -17.08289935 33.84067833 -18.75 30.25 C-19.04124846 26.75501844 -18.21336537 24.24765731 -16.9375 21 C-12.90087626 16.71108728 -7.19932363 14.49298052 -1.9375 12 C-2.2675 9.69 -2.5975 7.38 -2.9375 5 C-5.9075 4.505 -5.9075 4.505 -8.9375 4 C-8.586875 4.7425 -8.23625 5.485 -7.875 6.25 C-6.88223934 9.16209794 -6.7833029 10.21069033 -7.9375 13 C-8.5975 13.66 -9.2575 14.32 -9.9375 15 C-11.9175 13.35 -13.8975 11.7 -15.9375 10 C-15.08919454 6.81885452 -14.48110258 4.54360258 -12.125 2.1875 C-8.10874505 0.00724731 -4.50699079 -0.13514215 0 0 Z " fill="#DFFAC8" transform="translate(359.9375,346)"/>
<path d="M0 0 C2.625 2.25 2.625 2.25 4 5 C3.953125 7.40625 3.953125 7.40625 3 10 C0.3828125 12.203125 0.3828125 12.203125 -2.875 14.25 C-3.94492187 14.93578125 -5.01484375 15.6215625 -6.1171875 16.328125 C-9 18 -9 18 -12 19 C-11.89592083 22.40080577 -11.89592083 22.40080577 -11 26 C-7.42194946 29.15710342 -3.67434172 29.66004787 1 30 C3.32158065 29.65340705 3.32158065 29.65340705 5 29 C1.5537518 32.82916466 -1.12147928 34.67690074 -6.296875 35.2578125 C-12.45620803 35.53778218 -16.07141662 34.74572337 -21 31 C-24.82534257 27.17465743 -25.33278192 23.85410896 -25.5625 18.625 C-25.35591411 12.58580577 -24.29139387 8.35576478 -20 4 C-13.81740868 -0.71974605 -7.47256309 -1.9981579 0 0 Z " fill="#DFFBCB" transform="translate(605,347)"/>
<path d="M0 0 C1.375 2.75 1.375 2.75 1.22265625 5.2265625 C0.15588667 8.40229131 -0.98647104 9.14245963 -3.8125 10.875 C-4.61945313 11.37515625 -5.42640625 11.8753125 -6.2578125 12.390625 C-9.00517772 13.96831988 -11.74873212 15.42249175 -14.625 16.75 C-14.52092083 20.15080577 -14.52092083 20.15080577 -13.625 23.75 C-10.05727579 26.89799195 -6.30124767 27.49948673 -1.625 27.75 C1.22402067 26.93028284 1.22402067 26.93028284 3.375 25.75 C-1.35658968 30.88715451 -4.56863263 32.79992831 -11.5 33.125 C-17.47693974 33.00920236 -20.92027308 31.0039391 -25.5 27.1875 C-29.13535703 22.54232157 -28.19866464 15.26500327 -27.625 9.75 C-25.5592454 4.06917485 -21.98180177 0.54000092 -16.625 -2.25 C-11.05935925 -4.2054954 -4.49871654 -3.85604275 0 0 Z " fill="#DFFBCB" transform="translate(430.625,349.25)"/>
<path d="M0 0 C1.84315981 2.76473971 1.98874447 3.9818299 1.5 7.25 C-0.51171875 9.1640625 -0.51171875 9.1640625 -3.1875 10.875 C-4.05761719 11.44476563 -4.92773438 12.01453125 -5.82421875 12.6015625 C-7.61897085 13.7072346 -9.44345714 14.76593251 -11.29296875 15.77734375 C-13.82433619 17.09529531 -13.82433619 17.09529531 -14.125 20.1875 C-13.73887952 23.35525653 -13.73887952 23.35525653 -11.5 25.5625 C-7.11536213 28.0288588 -3.0441374 28.69522405 2 27.8125 C2.495 27.626875 2.99 27.44125 3.5 27.25 C-2.24715595 32.17613367 -6.54637724 33.72674698 -14.06640625 33.5703125 C-17.67816915 33.09492798 -19.7675622 31.59208954 -22.5 29.25 C-23.6446875 28.2909375 -23.6446875 28.2909375 -24.8125 27.3125 C-28.1466517 23.2374257 -27.84426637 18.327929 -27.5 13.25 C-26.30493404 7.59262351 -23.9673494 3.96570698 -19.38671875 0.44140625 C-13.3710021 -3.35733822 -5.98748711 -4.19124098 0 0 Z " fill="#DFFBC9" transform="translate(827.5,348.75)"/>
<path d="M0 0 C0.94875 0.04125 1.8975 0.0825 2.875 0.125 C9.44777529 10.20325544 10.76132484 22.96875171 8.33984375 34.72265625 C7.00847282 38.61491553 5.27299533 41.75670023 1.875 44.125 C-0.125 44 -0.125 44 -2.125 43.125 C-2.79015625 42.85042969 -3.4553125 42.57585937 -4.140625 42.29296875 C-7.03221346 40.59102987 -7.67306142 38.255339 -8.58203125 35.13671875 C-10.61210202 23.87639815 -9.73503449 12.64058961 -5.125 2.125 C-3.125 0.125 -3.125 0.125 0 0 Z " fill="#1F5C03" transform="translate(331.125,205.875)"/>
<path d="M0 0 C3.72036566 1.45185001 4.72382298 3.51964708 6.5625 7 C7.81795295 12.41001105 7.7813737 17.85008168 7.8125 23.375 C7.833125 24.2825 7.85375 25.19 7.875 26.125 C7.90952422 32.11495255 7.17528468 36.57770332 4.5625 42 C1.75 43.75 1.75 43.75 -1.4375 44 C-5.02845263 42.34263725 -6.92855329 41.11656677 -8.5859375 37.48046875 C-9.71087186 32.88268655 -9.82046147 28.53113698 -9.8125 23.8125 C-9.81117065 22.41390747 -9.81117065 22.41390747 -9.80981445 20.98706055 C-9.69396225 14.24352119 -9.10722094 7.85437087 -5.4375 2 C-2.4375 0 -2.4375 0 0 0 Z " fill="#1F5C03" transform="translate(254.4375,206)"/>
<path d="M0 0 C1.32 0.33 2.64 0.66 4 1 C4.33 3.31 4.66 5.62 5 8 C6.32 8.33 7.64 8.66 9 9 C9 7.68 9 6.36 9 5 C9.99 4.67 10.98 4.34 12 4 C12.99 5.32 13.98 6.64 15 8 C13.125 11.875 13.125 11.875 12 13 C9.36 13 6.72 13 4 13 C4.33 21.91 4.66 30.82 5 40 C7.97 39.505 7.97 39.505 11 39 C6.86915888 44.71028037 6.86915888 44.71028037 3 46 C-0.94440644 46 -3.45779809 45.14037367 -6.61914062 42.80273438 C-8.62043463 40.1900125 -8.38515896 38.16769163 -8.40625 34.90625 C-8.42816406 33.71128906 -8.45007813 32.51632812 -8.47265625 31.28515625 C-8.49088542 28.76171875 -8.50911458 26.23828125 -8.52734375 23.71484375 C-8.54925781 22.51988281 -8.57117188 21.32492187 -8.59375 20.09375 C-8.60083984 18.99740234 -8.60792969 17.90105469 -8.61523438 16.77148438 C-9.03823632 13.72458204 -9.5922525 12.82733684 -12 11 C-9 9 -9 9 -6.5625 7.75 C-3.43996683 5.61753832 -1.9298673 3.2164455 0 0 Z " fill="#E0FAC7" transform="translate(788,337)"/>
<path d="M0 0 C2.21278764 1.83127253 3.39501792 3.56664007 5 6 C4.01 7.32 3.02 8.64 2 10 C-2.875 8.25 -2.875 8.25 -4 6 C-3.34 5.67 -2.68 5.34 -2 5 C-3.32 4.67 -4.64 4.34 -6 4 C-5.50716218 8.3085973 -4.3273706 10.06944282 -1.125 12.9375 C5.79392516 19.58314625 5.79392516 19.58314625 6.12109375 25.0078125 C5.91510133 28.60935742 5.31220002 30.5837333 3.125 33.5 C-1.56842629 35.75284462 -5.888842 35.75582278 -11 35 C-13.62235351 33.95615054 -14.87405473 32.95810749 -17 31 C-17.33 30.01 -17.66 29.02 -18 28 C-17.319375 28.33 -16.63875 28.66 -15.9375 29 C-12.49159762 30.17307315 -9.61602578 30.14180493 -6 30 C-7.52916637 23.88333453 -10.98418126 18.71778489 -15.66015625 14.50390625 C-17.67094867 12.24689435 -17.52777914 9.91889847 -17.42578125 7.00390625 C-16.70392025 3.60652376 -14.66841924 2.04785663 -12 0 C-7.82764791 -1.39078403 -4.2226909 -1.24240293 0 0 Z " fill="#E0FAC6" transform="translate(968,347)"/>
<path d="M0 0 C5.1552805 5.42859519 4.56636392 11.27515992 4.4375 18.4375 C4.44458984 19.54416016 4.45167969 20.65082031 4.45898438 21.79101562 C4.40454196 28.79733522 4.20215897 34.79784103 -1 40 C-4.14063829 39.79953373 -6.27660943 39.54877905 -8.8125 37.625 C-12.02749556 33.2255324 -11.26122493 27.62995552 -11.3125 22.4375 C-11.34150391 21.48552734 -11.37050781 20.53355469 -11.40039062 19.55273438 C-11.46065714 12.74261844 -10.37270505 6.99531552 -7 1 C-4.34665389 -0.32667306 -2.94124405 -0.49020734 0 0 Z " fill="#215D04" transform="translate(665,207)"/>
<path d="M0 0 C2.1875 1.1875 2.1875 1.1875 4.1875 4.1875 C3.8125 6.875 3.8125 6.875 3.1875 9.1875 C1.8675 9.5175 0.5475 9.8475 -0.8125 10.1875 C-1.875 8.3125 -1.875 8.3125 -2.8125 6.1875 C-2.4825 5.5275 -2.1525 4.8675 -1.8125 4.1875 C-3.1325 4.1875 -4.4525 4.1875 -5.8125 4.1875 C-6.14890516 7.35853226 -6.17296004 8.7277208 -4.16796875 11.28515625 C-3.45253906 11.93355469 -2.73710938 12.58195312 -2 13.25 C4.83279764 19.53517815 4.83279764 19.53517815 5.65625 23.37109375 C5.71255612 27.43217289 5.4841634 29.68624115 3.375 33.25 C-1.32928537 36.10946758 -5.4437252 36.03244645 -10.8125 35.1875 C-13.76381089 34.10967016 -16.10366121 32.82302531 -18.8125 31.1875 C-18.8125 30.1975 -18.8125 29.2075 -18.8125 28.1875 C-13.9375 29.0625 -13.9375 29.0625 -12.8125 30.1875 C-11.14632885 30.22813832 -9.47861905 30.230221 -7.8125 30.1875 C-6.4913208 27.3511451 -6.4913208 27.3511451 -7.6328125 25.35546875 C-8.06335938 24.70191406 -8.49390625 24.04835938 -8.9375 23.375 C-9.39769531 22.66601562 -9.85789062 21.95703125 -10.33203125 21.2265625 C-11.6596976 19.39795608 -13.05220389 17.86335532 -14.625 16.25 C-17.20653082 12.63585686 -17.49067013 10.58332529 -17.2421875 6.2421875 C-16.60920288 3.21537015 -15.32607619 1.9110951 -12.8125 0.1875 C-8.40028652 -1.28323783 -4.47386166 -1.29244892 0 0 Z " fill="#DFFBCB" transform="translate(769.8125,346.8125)"/>
<path d="M0 0 C2.11879931 2.23680838 2.83223794 4.08059485 4 7 C3.01 7.99 2.02 8.98 1 10 C-3.875 8.25 -3.875 8.25 -5 6 C-4.34 5.67 -3.68 5.34 -3 5 C-4.32 4.67 -5.64 4.34 -7 4 C-6.45868224 10.13493456 -2.38245598 13.61754402 1.75 17.75 C4.55927201 20.55927201 4.93728865 21.33525969 5.3125 25.3125 C4.95124058 29.57536111 3.98007946 31.01992054 1 34 C-2.92062139 35.9603107 -7.71570426 35.3518802 -12 35 C-15.1875 33.6875 -15.1875 33.6875 -17 32 C-17 31.01 -17 30.02 -17 29 C-14.36 29.33 -11.72 29.66 -9 30 C-8.23778684 28.224434 -8.23778684 28.224434 -8 26 C-9.04207434 23.73169518 -9.04207434 23.73169518 -10.6875 21.5625 C-11.24050781 20.77230469 -11.79351563 19.98210937 -12.36328125 19.16796875 C-14.05173945 16.86484928 -14.05173945 16.86484928 -16.375 14.375 C-18.66868361 11.02269318 -18.6385957 8.97348433 -18 5 C-13.00926817 -1.20469363 -7.498379 -2.27037662 0 0 Z " fill="#E0FBC9" transform="translate(943,347)"/>
<path d="M0 0 C0 0.66 0 1.32 0 2 C3.8063457 1.32829194 7.35206816 0.27253436 11 -1 C13.7972908 1.06756277 14.02692273 2.14440371 14.6875 5.6875 C14.790625 6.780625 14.89375 7.87375 15 9 C14.443125 8.649375 13.88625 8.29875 13.3125 7.9375 C10.40114837 6.75722231 8.97006011 7.08613535 6 8 C5.01 8.66 4.02 9.32 3 10 C2.50677901 12.49819928 2.50677901 12.49819928 2.5234375 15.41015625 C2.4925 16.48201172 2.4615625 17.55386719 2.4296875 18.65820312 C2.41164063 19.78162109 2.39359375 20.90503906 2.375 22.0625 C2.32422481 24.28264501 2.26974404 26.50270946 2.2109375 28.72265625 C2.18459229 30.20390991 2.18459229 30.20390991 2.15771484 31.71508789 C2 34 2 34 1 35 C-4.73611111 35.27314815 -4.73611111 35.27314815 -7 35 C-9.71663793 32.28336207 -9.30753121 30.69805347 -9.4140625 26.8984375 C-9.45273437 25.68671875 -9.49140625 24.475 -9.53125 23.2265625 C-9.5621875 21.95554687 -9.593125 20.68453125 -9.625 19.375 C-9.66367187 18.09625 -9.70234375 16.8175 -9.7421875 15.5 C-9.83671049 12.33347983 -9.92226357 9.1669696 -10 6 C-11.32 5.34 -12.64 4.68 -14 4 C-14 3.34 -14 2.68 -14 2 C-8.77729131 -0.66464729 -5.9180497 -1.32854177 0 0 Z " fill="#DEF9C7" transform="translate(566,347)"/>
<path d="M0 0 C0 0.66 0 1.32 0 2 C3.8063457 1.32829194 7.35206816 0.27253436 11 -1 C13.7972908 1.06756277 14.02692273 2.14440371 14.6875 5.6875 C14.790625 6.780625 14.89375 7.87375 15 9 C14.443125 8.649375 13.88625 8.29875 13.3125 7.9375 C10.40114837 6.75722231 8.97006011 7.08613535 6 8 C5.01 8.66 4.02 9.32 3 10 C2.49039309 12.51385259 2.49039309 12.51385259 2.48828125 15.4453125 C2.45283203 16.52167969 2.41738281 17.59804688 2.38085938 18.70703125 C2.34702148 20.39892578 2.34702148 20.39892578 2.3125 22.125 C2.27833984 23.26066406 2.24417969 24.39632813 2.20898438 25.56640625 C2.12630498 28.37750579 2.05722063 31.18828553 2 34 C-1.25 35.1875 -1.25 35.1875 -5 36 C-7.19848633 34.91577148 -7.19848633 34.91577148 -9 33 C-9.5300293 30.33618164 -9.5300293 30.33618164 -9.57421875 27.16015625 C-9.60193359 26.01482422 -9.62964844 24.86949219 -9.65820312 23.68945312 C-9.66787109 22.49255859 -9.67753906 21.29566406 -9.6875 20.0625 C-9.72963419 17.69915494 -9.77506824 15.3358658 -9.82421875 12.97265625 C-9.83541748 11.92343994 -9.84661621 10.87422363 -9.8581543 9.79321289 C-9.9827797 7.33910058 -10.16205077 5.30527662 -11 3 C-11.66 2.67 -12.32 2.34 -13 2 C-8.22169095 -0.91360308 -5.44893869 -1.19876651 0 0 Z " fill="#DFFAC7" transform="translate(389,347)"/>
<path d="M0 0 C2.77765553 3.65681793 3.38336097 6.39165242 3.3984375 10.9296875 C3.40230469 12.05503906 3.40617187 13.18039063 3.41015625 14.33984375 C3.39855469 15.50644531 3.38695312 16.67304688 3.375 17.875 C3.38660156 19.03386719 3.39820313 20.19273437 3.41015625 21.38671875 C3.38557737 28.55555779 3.33107373 34.66892627 -2 40 C-4.61580479 39.6730244 -6.64078137 39.17960932 -9 38 C-13.18097198 28.0121225 -11.5715376 15.25440301 -9 5 C-7.09244156 0.41240077 -5.02873028 -0.73591175 0 0 Z " fill="#245E06" transform="translate(415,207)"/>
<path d="M0 0 C0.33 0 0.66 0 1 0 C1.06058594 0.69867188 1.12117188 1.39734375 1.18359375 2.1171875 C1.26738281 3.02726562 1.35117187 3.93734375 1.4375 4.875 C1.51871094 5.77992188 1.59992188 6.68484375 1.68359375 7.6171875 C1.86989285 10.01110861 1.86989285 10.01110861 3 12 C3.680625 11.484375 4.36125 10.96875 5.0625 10.4375 C9.0173407 8.50215242 10.83413807 8.58658256 15 10 C19.83149988 15.23621101 20.79104549 20.60357742 20.625 27.5 C20.65400391 28.70462891 20.65400391 28.70462891 20.68359375 29.93359375 C20.6275496 36.84944217 18.17273326 41.47333414 13.59277344 46.56420898 C9.99119069 49.93395332 6.83717912 50.70976925 2 51 C3 48 3 48 4.484375 46.68359375 C8.39347982 42.3412634 8.0416422 34.14334878 7.93359375 28.58203125 C7.62271365 24.5307208 7.28773162 20.86319486 6 17 C4.34795544 16.29788106 2.68076231 15.63028587 1 15 C-0.44207941 12.11584117 -0.09394887 9.58278472 -0.0625 6.375 C-0.05347656 5.18648438 -0.04445313 3.99796875 -0.03515625 2.7734375 C-0.02355469 1.85820312 -0.01195312 0.94296875 0 0 Z " fill="#DEF9C5" transform="translate(319,337)"/>
<path d="M0 0 C2.5625 1.0625 2.5625 1.0625 4.3125 4.1875 C7.70420149 13.63444257 7.83357246 25.52916049 4.5625 35.0625 C2.68296797 37.40285393 2.09113213 37.99642098 -0.9375 38.375 C-3.4375 38.0625 -3.4375 38.0625 -6.4375 36.0625 C-9.68604885 26.31685344 -8.60159749 11.34576321 -4.4375 2.0625 C-2.4375 0.0625 -2.4375 0.0625 0 0 Z " fill="#205C03" transform="translate(1060.4375,206.9375)"/>
<path d="M0 0 C1.32 0 2.64 0 4 0 C6.63188948 4.59957143 6.36759504 8.81653106 6.375 14 C6.39949219 14.90234375 6.42398438 15.8046875 6.44921875 16.734375 C6.47870662 23.37897519 6.47870662 23.37897519 3.9765625 26.625 C2.99816406 27.305625 2.99816406 27.305625 2 28 C-1.98505548 24.40059505 -2.84363424 22.30038087 -3.203125 17.01171875 C-3.29440667 10.53832712 -3.18097224 5.69924193 0 0 Z " fill="#1F5C03" transform="translate(533,351)"/>
<path d="M0 0 C3.0625 0.375 3.0625 0.375 4.9375 1.8125 C6.67126717 5.76163633 7.04220428 9.15261253 6.0625 13.375 C3.75152004 17.13823512 1.14139485 20.70626459 -3.171875 22.09375 C-4.04585937 22.23296875 -4.04585937 22.23296875 -4.9375 22.375 C-4.7725 21.67375 -4.6075 20.9725 -4.4375 20.25 C-3.76633008 16.39077298 -3.159319 12.88558664 -5 9.3125 C-6.28755604 6.65155085 -5.81155121 5.14282883 -4.9375 2.375 C-2.9375 0.375 -2.9375 0.375 0 0 Z " fill="#E0F9C5" transform="translate(619.9375,371.625)"/>
<path d="M0 0 C0 3 0 6 0 9 C0.763125 8.79375 1.52625 8.5875 2.3125 8.375 C5 8 5 8 8 10 C7.42655063 12.86724686 7.1385485 13.8614515 5 16 C1.47013492 16.32683936 -1.13775866 16.35374004 -4.4375 15 C-6.46813934 12.40078165 -6.55350466 10.1819822 -6.3984375 6.9375 C-5.79726731 4.0141626 -4.35365511 2.73062876 -2 1 C-1.34 0.67 -0.68 0.34 0 0 Z " fill="#DEFACA" transform="translate(852,336)"/>
<path d="M0 0 C1.35550385 2.7110077 1.16917207 4.91339169 1.1875 7.9375 C1.20167969 8.99839844 1.21585938 10.05929687 1.23046875 11.15234375 C1 14 1 14 -1 17 C-5.875 16.125 -5.875 16.125 -7 15 C-7.07271741 12.64686445 -7.08370868 10.29166332 -7.0625 7.9375 C-7.05347656 6.64714844 -7.04445312 5.35679687 -7.03515625 4.02734375 C-7.02355469 3.02832031 -7.01195312 2.02929688 -7 1 C-4.53721199 -0.231394 -2.7204945 -0.07159196 0 0 Z " fill="#DFF6BA" transform="translate(254,331)"/>
<path d="M0 0 C3 0.125 3 0.125 4 1.125 C4.52618714 6.82740021 3.83492674 11.73490271 2 17.125 C-2.875 16.25 -2.875 16.25 -4 15.125 C-4.09909302 12.79339945 -4.12970504 10.45870058 -4.125 8.125 C-4.12757813 6.84625 -4.13015625 5.5675 -4.1328125 4.25 C-3.95919858 0.16496661 -3.95919858 0.16496661 0 0 Z " fill="#DFF4B3" transform="translate(983,330.875)"/>
<path d="M0 0 C2.55694972 3.83542457 2.04045639 5.65902533 1.625 10.1875 C1.45871094 12.09595703 1.45871094 12.09595703 1.2890625 14.04296875 C1.19367188 15.01878906 1.09828125 15.99460937 1 17 C-0.8125 17.625 -0.8125 17.625 -3 18 C-3.99 17.34 -4.98 16.68 -6 16 C-6.22137393 13.37302936 -6.28162025 10.99106036 -6.1875 8.375 C-6.17396484 7.66859375 -6.16042969 6.9621875 -6.14648438 6.234375 C-6.1111104 4.48925872 -6.05730221 2.74453392 -6 1 C-4 0 -4 0 0 0 Z " fill="#E0F9C4" transform="translate(264,331)"/>
<path d="M0 0 C1 1 1 1 1.09765625 4.16015625 C1.08605469 5.44792969 1.07445312 6.73570312 1.0625 8.0625 C1.05347656 9.35285156 1.04445313 10.64320313 1.03515625 11.97265625 C1.02355469 12.97167969 1.01195312 13.97070312 1 15 C-0.98 15.99 -0.98 15.99 -3 17 C-6 15 -6 15 -6.4765625 12.90625 C-6.52554688 12.1121875 -6.57453125 11.318125 -6.625 10.5 C-6.82462241 7.12238732 -6.82462241 7.12238732 -8 4 C-7.34 4 -6.68 4 -6 4 C-6.66 2.68 -7.32 1.36 -8 0 C-4.69676014 -1.10107995 -3.29495231 -0.86709271 0 0 Z " fill="#DEF8C3" transform="translate(996,332)"/>
<path d="M0 0 C0.78375 0.144375 1.5675 0.28875 2.375 0.4375 C4.375 3.4375 4.375 3.4375 4.3125 5.3125 C2.70011587 8.96723736 0.23979059 11.68463423 -3.51171875 13.19921875 C-5.19780846 13.68144725 -6.91072715 14.06775488 -8.625 14.4375 C-9.625 11.4375 -9.625 11.4375 -8.4375 8 C-4.77196486 0.79532748 -4.77196486 0.79532748 0 0 Z " fill="#205C04" transform="translate(822.625,204.5625)"/>
<path d="M0 0 C2.01822917 0.06510417 4.03645833 0.13020833 6.0546875 0.1953125 C7.48413695 2.54969983 8.14130011 3.67563683 7.6796875 6.4453125 C7.4734375 7.0228125 7.2671875 7.6003125 7.0546875 8.1953125 C5.3671875 8.8828125 5.3671875 8.8828125 3.0546875 9.1953125 C0.3046875 7.7578125 0.3046875 7.7578125 -1.9453125 6.1953125 C-4.06578042 9.72942571 -4.47730539 13.13925085 -4.9453125 17.1953125 C-5.9353125 16.8653125 -6.9253125 16.5353125 -7.9453125 16.1953125 C-8.44658192 10.05476207 -7.25967685 7.16685903 -3.9453125 2.1953125 C-1.9453125 0.1953125 -1.9453125 0.1953125 0 0 Z " fill="#266008" transform="translate(745.9453125,204.8046875)"/>
<path d="M0 0 C1.32 0.33 2.64 0.66 4 1 C4.05416188 2.60379341 4.09286638 4.20811406 4.125 5.8125 C4.14820313 6.70582031 4.17140625 7.59914063 4.1953125 8.51953125 C4 11 4 11 2 14 C0.68 13.67 -0.64 13.34 -2 13 C-3.19876651 7.55106131 -2.91360308 4.77830905 0 0 Z " fill="#1F5C03" transform="translate(732,363)"/>
<path d="M0 0 C0.99 0.33 1.98 0.66 3 1 C3 4.63 3 8.26 3 12 C1.02 12.99 1.02 12.99 -1 14 C-3 12 -3 12 -3.3125 8.125 C-3.24088781 4.54439038 -2.60208598 2.60208598 0 0 Z " fill="#205D04" transform="translate(356,363)"/>
<path d="M0 0 C1.32 0.33 2.64 0.66 4 1 C5.23076923 6.41538462 5.23076923 6.41538462 4.0625 9.375 C3.711875 9.91125 3.36125 10.4475 3 11 C1.35 11 -0.3 11 -2 11 C-2.25 3.375 -2.25 3.375 0 0 Z " fill="#27610A" transform="translate(594,351)"/>
<path d="M0 0 C0.99 0 1.98 0 3 0 C4.32789969 2.1871289 5.04752686 3.47720456 4.8125 6.0625 C3.89199398 8.25755282 2.78403777 9.44866281 1 11 C0.01 10.34 -0.98 9.68 -2 9 C-2.43132515 4.94554358 -2.30019361 3.45029042 0 0 Z " fill="#225D05" transform="translate(417,351)"/>
<path d="M0 0 C0.99 0.33 1.98 0.66 3 1 C3.73046875 2.84765625 3.73046875 2.84765625 4.1875 5.0625 C4.34605469 5.79597656 4.50460937 6.52945312 4.66796875 7.28515625 C4.83232422 8.13400391 4.83232422 8.13400391 5 9 C2.92446352 9.5534764 1.15634036 10 -1 10 C-2.38125018 7.23749964 -2.19079306 5.05268901 -2 2 C-1.34 1.34 -0.68 0.68 0 0 Z " fill="#245F08" transform="translate(908,351)"/>
<path d="M0 0 C1.32 0.66 2.64 1.32 4 2 C4 3.98 4 5.96 4 8 C2.35 8.66 0.7 9.32 -1 10 C-2.38125018 7.23749964 -2.19079306 5.05268901 -2 2 C-1.34 1.34 -0.68 0.68 0 0 Z " fill="#205C03" transform="translate(815,351)"/>
</svg>
